<svg
  width="28"
  height="28"
  viewBox="0 0 28 28"
  fill="none"
  xmlns="http://www.w3.org/2000/svg"
>
  <rect width="28" height="28" rx="14" fill="#3D3D3D" />
  <path
    d="M20.9263 7.19562C20.9206 7.16798 20.9071 7.14255 20.8874 7.12229C20.8678 7.10203 20.8428 7.08779 20.8153 7.08125C18.985 6.63375 14.756 8.22844 12.4647 10.5187C12.056 10.9241 11.6835 11.3643 11.3513 11.8344C10.6447 11.7719 9.93814 11.8241 9.33595 12.0866C7.63689 12.8344 7.1422 14.7856 7.00439 15.625C6.99657 15.6709 6.99952 15.7181 7.013 15.7627C7.02649 15.8073 7.05013 15.8482 7.08209 15.8821C7.11404 15.916 7.15343 15.9421 7.19716 15.9582C7.24088 15.9743 7.28775 15.9801 7.33408 15.975L10.0625 15.6741C10.0645 15.8798 10.0769 16.0852 10.0997 16.2897C10.1134 16.4317 10.1765 16.5643 10.2778 16.6647L11.3344 17.7187C11.4348 17.82 11.5675 17.883 11.7094 17.8969C11.9127 17.9196 12.117 17.932 12.3216 17.9341L12.0222 20.6591C12.0172 20.7054 12.023 20.7522 12.0392 20.7959C12.0553 20.8396 12.0813 20.879 12.1153 20.9109C12.1492 20.9428 12.19 20.9665 12.2346 20.98C12.2792 20.9935 12.3263 20.9965 12.3722 20.9887C13.21 20.8544 15.1647 20.3597 15.9081 18.6606C16.1706 18.0584 16.2244 17.3553 16.1638 16.6522C16.635 16.3199 17.0763 15.9473 17.4828 15.5384C19.7813 13.2516 21.3669 9.11687 20.9263 7.19562ZM15.1897 12.8103C14.9798 12.6006 14.8369 12.3333 14.7789 12.0423C14.721 11.7513 14.7506 11.4497 14.8641 11.1755C14.9776 10.9014 15.1699 10.667 15.4166 10.5022C15.6633 10.3373 15.9533 10.2493 16.25 10.2493C16.5467 10.2493 16.8368 10.3373 17.0835 10.5022C17.3302 10.667 17.5224 10.9014 17.6359 11.1755C17.7494 11.4497 17.7791 11.7513 17.7211 12.0423C17.6632 12.3333 17.5202 12.6006 17.3103 12.8103C17.1712 12.9497 17.0059 13.0602 16.8239 13.1357C16.642 13.2111 16.447 13.25 16.25 13.25C16.0531 13.25 15.858 13.2111 15.6761 13.1357C15.4942 13.0602 15.3289 12.9497 15.1897 12.8103Z"
    fill="#D6E9FF"
  />
  <path
    d="M11.2625 18.4822C11.0912 18.6538 10.8166 18.7206 10.4859 18.7778C9.74313 18.9044 9.08719 18.2625 9.22062 17.5116C9.27156 17.2269 9.42219 16.8278 9.51594 16.7341C9.53643 16.714 9.55007 16.6879 9.55492 16.6596C9.55977 16.6314 9.55558 16.6023 9.54295 16.5765C9.53033 16.5507 9.5099 16.5296 9.48457 16.5161C9.45925 16.5026 9.43031 16.4974 9.40188 16.5013C8.98649 16.5521 8.60004 16.7404 8.30406 17.0363C7.56938 17.7716 7.5 20.5 7.5 20.5C7.5 20.5 10.23 20.4306 10.9647 19.6953C11.2615 19.3996 11.45 19.0125 11.5 18.5966C11.5116 18.4659 11.3525 18.3881 11.2625 18.4822V18.4822Z"
    fill="#D6E9FF"
  />
</svg>
